<svg width="49" height="50" viewBox="0 0 49 50" fill="none" xmlns="http://www.w3.org/2000/svg">
<path d="M48.4923 33.5505C46.5141 38.9856 42.7126 43.5666 37.7354 46.513C32.7583 49.4594 26.9135 50.5889 21.1969 49.709C15.4804 48.8292 10.2457 45.9944 6.38493 41.6877C2.52415 37.381 0.276086 31.8689 0.0237948 26.0905C-0.228497 20.3121 1.53059 14.625 5.00133 9.99823C8.47207 5.37143 13.4397 2.0912 19.0578 0.716451C24.676 -0.658299 30.597 -0.0425095 35.812 2.4589C41.027 4.9603 45.2133 9.19255 47.6577 14.4345L40.4066 17.8158C38.7445 14.2514 35.8979 11.3736 32.3518 9.67268C28.8058 7.9718 24.7797 7.55308 20.9595 8.48787C17.1393 9.42266 13.7615 11.6531 11.4015 14.7992C9.04146 17.9453 7.84533 21.8124 8.01688 25.7415C8.18843 29.6706 9.71705 33.4187 12.3423 36.3472C14.9675 39.2756 18.5269 41.2032 22.414 41.8014C26.3011 42.3997 30.2754 41.6317 33.6597 39.6282C37.044 37.6248 39.629 34.5098 40.9741 30.8141L48.4923 33.5505Z" fill="#003399"/>
</svg>
