<svg width="29" height="29" viewBox="0 0 29 29" fill="none" xmlns="http://www.w3.org/2000/svg">
<path d="M28.1198 19.5099C26.9727 22.6456 24.7683 25.2884 21.8821 26.9883C18.9959 28.6881 15.6067 29.3398 12.2917 28.8321C8.97681 28.3246 5.9413 26.6891 3.70251 24.2045C1.46372 21.7198 0.160105 18.5398 0.0138062 15.2061C-0.132493 11.8724 0.887569 8.59136 2.90019 5.92205C4.91281 3.25276 7.79344 1.36032 11.0513 0.56719C14.3092 -0.225935 17.7426 0.129329 20.7667 1.57245C23.7908 3.01557 26.2184 5.45728 27.6358 8.48145L23.4311 10.4322C22.4672 8.37582 20.8165 6.71555 18.7602 5.73426C16.704 4.75297 14.3693 4.5114 12.154 5.05072C9.93877 5.59003 7.98005 6.8768 6.61153 8.69186C5.24298 10.5069 4.54937 12.7379 4.64885 15.0047C4.74833 17.2715 5.63475 19.4339 7.15708 21.1234C8.67939 22.8129 10.7434 23.9249 12.9975 24.2701C15.2515 24.6152 17.5562 24.1721 19.5187 23.0163C21.4811 21.8605 22.9801 20.0634 23.7601 17.9312L28.1198 19.5099Z" fill="black" fill-opacity="0.6"/>
</svg>
